<?xml version="1.0" encoding="UTF-8"?>
<svg width="19px" height="18px" viewBox="0 0 19 18" version="1.1" xmlns="http://www.w3.org/2000/svg" xmlns:xlink="http://www.w3.org/1999/xlink">
    <title>Vector</title>
    <defs>
        <linearGradient x1="0%" y1="0%" x2="0%" y2="100%" id="linearGradient-1">
            <stop stop-color="#84B8FC" offset="0%"></stop>
            <stop stop-color="#DEE6FF" offset="100%"></stop>
        </linearGradient>
    </defs>
    <g id="Prototyping-Apple-Watch" stroke="none" stroke-width="1" fill="none" fill-rule="evenodd">
        <g id="Apple-Watch-44mm---2" transform="translate(-27.000000, -257.000000)" fill="url(#linearGradient-1)">
            <g id="Frame-5476" transform="translate(11.000000, 42.000000)">
                <g id="Group-181" transform="translate(0.000000, 194.999992)">
                    <g id="Frame-5475" transform="translate(13.000000, 6.994141)">
                        <g id="mdi:meditation" transform="translate(0.000000, 9.000000)">
                            <path d="M14.1744565,6.49999475 C14.1744565,7.70249468 13.2733661,8.66666126 12.1495342,8.66666126 C11.0257024,8.66666126 10.124612,7.70249468 10.124612,6.49999475 C10.124612,5.29749483 11.035827,4.33332825 12.1495342,4.33332825 C13.2733661,4.33332825 14.1744565,5.29749483 14.1744565,6.49999475 Z M21.2616844,15.1666608 C18.9937715,15.1666608 17.0498458,14.1266606 15.5919017,12.2633273 L14.2352046,10.5299947 C14.0468358,10.2856732 13.8102371,10.089019 13.5424031,9.95415678 C13.2745691,9.81929452 12.9821465,9.74957095 12.6861384,9.74999452 L11.6433037,9.74999452 C11.0257024,9.74999452 10.4587239,10.0316614 10.0739887,10.5299947 L8.71729064,12.2633273 C7.24922195,14.1266606 5.30529698,15.1666608 3.03738403,15.1666608 L3.03738403,17.3333282 C5.84190135,17.3333282 8.29205737,16.0658273 10.124612,13.8124942 L10.124612,16.249994 L6.19626265,17.9291598 C5.51791367,18.2216597 5.0623063,18.9583262 5.0623063,19.7274928 C5.0623063,20.7999927 5.87227516,21.6666603 6.87461169,21.6666603 L9.11215083,21.6666603 L9.11215083,21.1249937 C9.11215083,20.4066991 9.37882508,19.717824 9.85350833,19.209913 C10.3281916,18.702002 10.9720002,18.4166605 11.6433037,18.4166605 L14.6806871,18.4166605 C14.9641762,18.4166605 15.1869176,18.6549939 15.1869176,18.9583272 C15.1869176,19.2616605 14.9641762,19.4999938 14.6806871,19.4999938 L11.6433037,19.4999938 C10.8029609,19.4999938 10.124612,20.2258271 10.124612,21.1249937 L10.124612,21.6666603 L17.4244558,21.6666603 C18.4267923,21.6666603 19.2367622,20.7999927 19.2367622,19.7274928 C19.2367622,18.9583262 18.7811538,18.2216597 18.1028048,17.9291598 L14.1744565,16.249994 L14.1744565,13.8124942 C16.0070111,16.0658273 18.4571671,17.3333282 21.2616844,17.3333282 L21.2616844,15.1666608 Z" id="Vector"></path>
                        </g>
                    </g>
                </g>
            </g>
        </g>
    </g>
</svg>