<?xml version="1.0" encoding="UTF-8"?>
<svg width="20px" height="21px" viewBox="0 0 20 21" version="1.1" xmlns="http://www.w3.org/2000/svg" xmlns:xlink="http://www.w3.org/1999/xlink">
    <title>fluent:shifts-activity-20-filled</title>
    <defs>
        <rect id="path-1" x="0" y="0" width="20" height="20"></rect>
        <linearGradient x1="0%" y1="0%" x2="0%" y2="100%" id="linearGradient-3">
            <stop stop-color="#84B8FC" offset="0%"></stop>
            <stop stop-color="#DEE6FF" offset="100%"></stop>
        </linearGradient>
    </defs>
    <g id="Prototyping-Apple-Watch" stroke="none" stroke-width="1" fill="none" fill-rule="evenodd">
        <g id="Apple-Watch-44mm---22" transform="translate(-24.000000, -125.000000)">
            <g id="Frame-5476" transform="translate(11.000000, 42.000000)">
                <g id="Group-183" transform="translate(0.000000, 65.000000)">
                    <g id="Frame-5475" transform="translate(13.000000, 6.994133)">
                        <g id="fluent:shifts-activity-20-filled" transform="translate(0.000000, 12.000000)">
                            <mask id="mask-2" fill="white">
                                <use xlink:href="#path-1"></use>
                            </mask>
                            <g id="fluent:shifts-activity-20-filled-(Background/Mask)"></g>
                            <path d="M9.83219814,3.25672543 C9.70655589,3.4108716 9.52483718,3.50880827 9.32700062,3.52900016 C8.10423446,3.65616818 6.94252151,4.12717688 5.97644711,4.88745904 C5.0103727,5.6477412 4.27947646,6.6661799 3.86843407,7.82478809 C3.45739168,8.98339629 3.38302618,10.2347542 3.65395272,11.4338903 C3.92487925,12.6330265 4.53000939,13.7308626 5.39923811,14.6002131 C6.26846683,15.4695635 7.36621892,16.0748472 8.56531715,16.3459415 C9.76441538,16.6170359 11.0157833,16.5428458 12.174449,16.1319656 C13.3331146,15.7210854 14.3516555,14.9903315 15.1120729,14.0243635 C15.8724903,13.0583955 16.3436625,11.8967481 16.4710016,10.6739998 C16.4796321,10.5749176 16.5078826,10.478542 16.5541105,10.390481 C16.6003384,10.30242 16.66362,10.2244327 16.7402716,10.1610584 C16.8169231,10.0976841 16.905414,10.0501886 17.0005941,10.0213356 C17.0957743,9.99248262 17.1957421,9.98284847 17.2946806,9.99299431 C17.3936191,10.0031401 17.4895525,10.0328627 17.5768957,10.0804329 C17.6642389,10.1280031 17.7412473,10.192471 17.803441,10.2700834 C17.8656348,10.3476959 17.9117712,10.436903 17.9391642,10.5325136 C17.9665571,10.6281242 17.9746591,10.728228 17.9630003,10.8269997 C17.8067812,12.3319701 17.2272882,13.7618638 16.2916784,14.9509706 C15.3560687,16.1400775 14.102649,17.039712 12.6766758,17.5456181 C11.2507026,18.0515241 9.71055889,18.1429885 8.23473167,17.8094101 C6.75890446,17.4758317 5.40781748,16.7308687 4.33804655,15.6608543 C3.26827562,14.59084 2.52361971,13.2395825 2.19037712,11.7636795 C1.85713452,10.2877765 1.94894856,8.74765444 2.4551791,7.32179642 C2.96140963,5.8959384 3.86133051,4.64272267 5.05065012,3.70738351 C6.23996973,2.77204436 7.66999519,2.19287675 9.17500114,2.03700008 C9.37284516,2.01688135 9.57058051,2.07616061 9.72472668,2.20180286 C9.87887284,2.32744512 9.97680881,2.50916357 9.99700069,2.70700014 L9.99700069,2.70700014 C10.0171194,2.90484415 9.9578404,3.10257927 9.83219814,3.25672543 Z M11.1393852,2.37481633 C11.1972816,2.29499637 11.2703497,2.22737666 11.3544083,2.17582692 C11.4384669,2.12427718 11.5318658,2.08980935 11.6292601,2.07439579 C11.7266543,2.05898224 11.8261323,2.06292552 11.9220009,2.0860001 C12.3000009,2.17600011 12.6690006,2.29400025 13.0250006,2.43600026 C13.2046981,2.51307686 13.3471903,2.6572832 13.4221125,2.83788955 C13.4970347,3.0184959 13.4984628,3.22122122 13.4260921,3.40286505 C13.3537215,3.58450888 13.2132752,3.73070829 13.0346813,3.81030858 C12.8560874,3.88990886 12.6534682,3.89661573 12.4700012,3.82900012 C12.1777563,3.71322852 11.8776699,3.61832397 11.5720005,3.5450002 C11.3786985,3.49851822 11.2117616,3.37718746 11.1078787,3.20767462 C11.0039958,3.03816178 10.9716678,2.83433801 11.0180006,2.64100015 L11.0170012,2.64100015 C11.039901,2.54508968 11.0814888,2.45463629 11.1393852,2.37481633 Z M17.1636324,6.56242466 C16.9808782,6.48375315 16.7743573,6.48090253 16.5895014,6.5545001 C16.4046455,6.62809768 16.2565976,6.77211459 16.1779261,6.95486879 C16.0992546,7.137623 16.0964035,7.34414391 16.170001,7.52899981 C16.285001,7.8189998 16.3810009,8.11900005 16.4550009,8.42700005 C16.5014138,8.62047547 16.6227842,8.7875888 16.7924109,8.89157772 C16.8764014,8.94306781 16.9697102,8.97751112 17.0670118,8.99293995 C17.1643134,9.00836878 17.2637025,9.004481 17.3595018,8.98149967 C17.4553011,8.95851834 17.5456356,8.91689299 17.6253481,8.85900021 C17.7050605,8.80110742 17.7725885,8.72808124 17.8240786,8.64409065 C17.8755686,8.56010006 17.910012,8.4667903 17.9254408,8.36948872 C17.9408696,8.27218713 17.9369818,8.17279897 17.9140005,8.07699966 C17.8239454,7.70141274 17.7069762,7.33279422 17.5640001,6.97399998 L17.5640001,6.97399998 C17.4904026,6.78914408 17.3463866,6.64109617 17.1636324,6.56242466 Z M14.8038855,3.67042339 C15.0022907,3.65673381 15.1980091,3.72240685 15.3480005,3.85300004 C15.6550005,4.12000003 15.9420003,4.41000003 16.2060003,4.72000003 C16.3348955,4.87157126 16.3983004,5.06813808 16.382266,5.2664578 C16.3662317,5.46477751 16.2720727,5.64860518 16.1205015,5.77750039 C15.9689303,5.9063956 15.772363,5.96979999 15.5740433,5.95376563 C15.3757236,5.93773127 15.1918959,5.84357138 15.0630007,5.69200015 C14.8476977,5.43882996 14.6137082,5.20216633 14.3630009,4.98400044 C14.213045,4.85336633 14.1211143,4.66852109 14.1074247,4.4701159 C14.0937352,4.27171071 14.1594077,4.07599171 14.2900009,3.92600024 L14.2900009,3.92600024 C14.420635,3.77604441 14.6054803,3.68411297 14.8038855,3.67042339 Z M9.78033066,5.21967006 C9.63967837,5.07901777 9.44891332,5.00000024 9.25000095,5.00000024 C9.05108859,5.00000024 8.86032353,5.07901777 8.71967125,5.21967006 C8.57901897,5.36032234 8.50000095,5.55108787 8.50000095,5.75000024 L8.50000095,10.75 C8.50000095,11.165 8.83600095,11.5 9.25000095,11.5 L12.250001,11.5 C12.4489133,11.5 12.6396784,11.420982 12.7803307,11.2803297 C12.9209829,11.1396774 13.000001,10.9489124 13.000001,10.75 C13.000001,10.5510876 12.9209829,10.3603226 12.7803307,10.2196703 C12.6396784,10.079018 12.4489133,10 12.250001,10 L10.000001,10 L10.000001,5.75000024 C10.000001,5.55108787 9.92098294,5.36032234 9.78033066,5.21967006 Z" id="Vector" fill="url(#linearGradient-3)" mask="url(#mask-2)"></path>
                        </g>
                    </g>
                </g>
            </g>
        </g>
    </g>
</svg>