<?xml version="1.0" encoding="UTF-8"?>
<svg width="20px" height="21px" viewBox="0 0 20 21" version="1.1" xmlns="http://www.w3.org/2000/svg" xmlns:xlink="http://www.w3.org/1999/xlink">
    <title>mdi:sleep</title>
    <defs>
        <rect id="path-1" x="0" y="0" width="20" height="20"></rect>
        <linearGradient x1="0%" y1="0%" x2="0%" y2="100%" id="linearGradient-3">
            <stop stop-color="#84B8FC" offset="0%"></stop>
            <stop stop-color="#DEE6FF" offset="100%"></stop>
        </linearGradient>
    </defs>
    <g id="Prototyping-Apple-Watch" stroke="none" stroke-width="1" fill="none" fill-rule="evenodd">
        <g id="Apple-Watch-44mm---2" transform="translate(-24.000000, -125.000000)">
            <g id="Frame-5476" transform="translate(11.000000, 42.000000)">
                <g id="Group-179" transform="translate(0.000000, 65.000000)">
                    <g id="Frame-5475" transform="translate(13.000000, 6.994133)">
                        <g id="mdi:sleep" transform="translate(0.000000, 12.000000)">
                            <mask id="mask-2" fill="white">
                                <use xlink:href="#path-1"></use>
                            </mask>
                            <g id="mdi:sleep-(Background/Mask)"></g>
                            <path d="M14.1666607,10.0000005 L14.1666607,8.33333397 L16.99166,5.0000006 L14.1666607,5.0000006 L14.1666607,3.33333397 L19.1666603,3.33333397 L19.1666603,5.0000006 L16.3499945,8.33333397 L19.1666603,8.33333397 L19.1666603,10.0000005 L14.1666607,10.0000005 Z M7.49999445,13.333334 L7.49999445,11.6666671 L10.3249945,8.33333397 L7.49999445,8.33333397 L7.49999445,6.66666722 L12.4999941,6.66666722 L12.4999941,8.33333397 L9.68332754,11.6666671 L12.4999941,11.6666671 L12.4999941,13.333334 L7.49999445,13.333334 Z M0.833328247,16.666667 L0.833328247,15.0000004 L3.65832794,11.6666671 L0.833328247,11.6666671 L0.833328247,10.0000005 L5.83332825,10.0000005 L5.83332825,11.6666671 L3.01666133,15.0000004 L5.83332825,15.0000004 L5.83332825,16.666667 L0.833328247,16.666667 Z" id="Vector" fill="url(#linearGradient-3)" mask="url(#mask-2)"></path>
                        </g>
                    </g>
                </g>
            </g>
        </g>
    </g>
</svg>