<?xml version="1.0" encoding="UTF-8"?>
<svg width="20px" height="21px" viewBox="0 0 20 21" version="1.1" xmlns="http://www.w3.org/2000/svg" xmlns:xlink="http://www.w3.org/1999/xlink">
    <title>material-symbols:emergency-home-outline-rounded</title>
    <defs>
        <rect id="path-1" x="0" y="0" width="20" height="20"></rect>
        <linearGradient x1="0%" y1="0%" x2="0%" y2="100%" id="linearGradient-3">
            <stop stop-color="#84B8FC" offset="0%"></stop>
            <stop stop-color="#DEE6FF" offset="100%"></stop>
        </linearGradient>
    </defs>
    <g id="Prototyping-Apple-Watch" stroke="none" stroke-width="1" fill="none" fill-rule="evenodd">
        <g id="Apple-Watch-44mm---2" transform="translate(-24.000000, -190.000000)">
            <g id="Frame-5476" transform="translate(11.000000, 42.000000)">
                <g id="Group-180" transform="translate(0.000000, 130.000000)">
                    <g id="Frame-5475" transform="translate(13.000000, 6.994133)">
                        <g id="material-symbols:emergency-home-outline-rounded" transform="translate(0.000000, 12.000000)">
                            <mask id="mask-2" fill="white">
                                <use xlink:href="#path-1"></use>
                            </mask>
                            <g id="material-symbols:emergency-home-outline-rounded-(Background/Mask)"></g>
                            <path d="M10.6349943,18.2391675 C10.4338832,18.3158342 10.2222165,18.3541679 9.99999428,18.3541679 C9.77777205,18.3541679 9.56610534,18.3158342 9.36499423,18.2391675 C9.16332757,18.1630564 8.97916083,18.0416689 8.81249416,17.8750022 L2.12499484,11.187502 C1.95832817,11.0208354 1.83666154,10.8366686 1.75999488,10.635002 C1.68388377,10.4338908 1.64582825,10.2222241 1.64582825,10.0000019 C1.64582825,9.77777968 1.68388377,9.56611297 1.75999488,9.36500186 C1.83666154,9.1633352 1.95832817,8.97916846 2.12499484,8.81250179 L8.81249416,2.12500247 C8.97916083,1.9583358 9.16332757,1.83666917 9.36499423,1.76000251 C9.56610534,1.6838914 9.77777205,1.64583588 9.99999428,1.64583588 C10.2222165,1.64583588 10.4338832,1.6838914 10.6349943,1.76000251 C10.836661,1.83666917 11.0208277,1.9583358 11.1874944,2.12500247 L17.8749946,8.81250179 C18.0416613,8.97916846 18.1633277,9.1633352 18.2399944,9.36500186 C18.3161055,9.56611297 18.3541603,9.77777968 18.3541603,10.0000019 C18.3541603,10.2222241 18.3161055,10.4338908 18.2399944,10.635002 C18.1633277,10.8366686 18.0416613,11.0208354 17.8749946,11.187502 L11.1874944,17.8750022 C11.0208277,18.0416689 10.836661,18.1630564 10.6349943,18.2391675 Z M16.6874937,10.0000019 L9.99999428,3.31250238 L3.31249475,10.0000019 L9.99999428,16.6875013 L16.6874937,10.0000019 Z M10.5941612,10.5933351 C10.7536056,10.4338907 10.8333276,10.236113 10.8333276,10.0000019 L10.8333276,6.6666691 C10.8333276,6.430558 10.7536056,6.2325026 10.5941612,6.0725026 C10.4341612,5.91305816 10.2361054,5.8333358 9.99999428,5.8333358 C9.76388318,5.8333358 9.5661055,5.91305816 9.40666106,6.0725026 C9.24666106,6.2325026 9.16666098,6.430558 9.16666098,6.6666691 L9.16666098,10.0000019 C9.16666098,10.236113 9.24666106,10.4338907 9.40666106,10.5933351 C9.5661055,10.7533351 9.76388318,10.8333352 9.99999428,10.8333352 C10.2361054,10.8333352 10.4341612,10.7533351 10.5941612,10.5933351 Z M10.5941612,13.093335 C10.7536056,12.9338906 10.8333276,12.7361129 10.8333276,12.5000018 C10.8333276,12.2638907 10.7536056,12.0658349 10.5941612,11.9058349 C10.4341612,11.7463905 10.2361054,11.6666685 9.99999428,11.6666685 C9.76388318,11.6666685 9.5661055,11.7463905 9.40666106,11.9058349 C9.24666106,12.0658349 9.16666098,12.2638907 9.16666098,12.5000018 C9.16666098,12.7361129 9.24666106,12.9338906 9.40666106,13.093335 C9.5661055,13.253335 9.76388318,13.3333351 9.99999428,13.3333351 C10.2361054,13.3333351 10.4341612,13.253335 10.5941612,13.093335 Z" id="Vector" fill="url(#linearGradient-3)" mask="url(#mask-2)"></path>
                        </g>
                    </g>
                </g>
            </g>
        </g>
    </g>
</svg>